<?xml version="1.0" encoding="UTF-8" standalone="no"?>
<!DOCTYPE svg PUBLIC "-//W3C//DTD SVG 1.1//EN" "http://www.w3.org/Graphics/SVG/1.1/DTD/svg11.dtd">
<svg version="1.1" xmlns="http://www.w3.org/2000/svg" xmlns:xlink="http://www.w3.org/1999/xlink" preserveAspectRatio="xMidYMid meet" viewBox="165.07499098721271 76.3142076502732 219.8685065650781 108.75136612021853" width="211.87" height="100.75"><defs><path d="M215.32 80.31C198.42 98.98 187.85 110.65 183.62 115.31C183.3 115.67 183.55 116.24 184.03 116.24C196.04 116.24 226.06 116.24 274.1 116.24C321.36 116.24 350.9 116.24 362.72 116.24C364.39 116.24 365.23 114.23 364.05 113.04C359.7 108.68 348.82 97.77 331.41 80.31C352.98 95.07 366.46 104.29 371.85 107.98C379.1 112.94 382.47 121.91 380.28 130.42C377.67 140.55 374.53 152.73 372.18 161.86C369.27 173.16 359.08 181.07 347.4 181.07C335.92 181.07 308.07 181.07 293.27 181.07C291.24 181.07 289.34 180.04 288.21 178.35C285.52 174.28 280.54 166.77 278.18 163.19C276.62 160.84 273.12 160.99 271.77 163.48C269.87 166.99 265.74 174.6 263.49 178.75C262.72 180.18 261.23 181.07 259.61 181.07C243.75 181.07 212.77 181.07 200.4 181.07C188.7 181.07 178.6 172.86 176.2 161.41C174.3 152.38 171.69 139.92 169.53 129.63C167.82 121.47 171.02 113.07 177.72 108.11C182.74 104.41 195.27 95.14 215.32 80.31Z" id="gsDhZy4Mj"></path><path d="M347.6 127.61C352.74 127.61 356.92 131.78 356.92 136.93C356.92 143.47 356.92 153.76 356.92 160.3C356.92 165.45 352.74 169.62 347.6 169.62C337.08 169.62 314.87 169.62 304.35 169.62C299.21 169.62 295.03 165.45 295.03 160.3C295.03 153.76 295.03 143.47 295.03 136.93C295.03 131.78 299.21 127.61 304.35 127.61C314.87 127.61 337.08 127.61 347.6 127.61Z" id="giymrauns"></path><path d="M243.84 127.61C248.99 127.61 253.16 131.78 253.16 136.93C253.16 143.47 253.16 153.76 253.16 160.3C253.16 165.45 248.99 169.62 243.84 169.62C233.33 169.62 211.11 169.62 200.6 169.62C195.45 169.62 191.28 165.45 191.28 160.3C191.28 153.76 191.28 143.47 191.28 136.93C191.28 131.78 195.45 127.61 200.6 127.61C211.11 127.61 233.33 127.61 243.84 127.61Z" id="bWxJd5YXk"></path></defs><g><g><use xlink:href="#gsDhZy4Mj" opacity="1" fill="#ffffff" fill-opacity="1"></use><g><use xlink:href="#gsDhZy4Mj" opacity="1" fill-opacity="0" stroke="#000000" stroke-width="8" stroke-opacity="1"></use></g></g><g><use xlink:href="#giymrauns" opacity="1" fill="#b7703e" fill-opacity="1"></use><g><use xlink:href="#giymrauns" opacity="1" fill-opacity="0" stroke="#000000" stroke-width="6" stroke-opacity="1"></use></g></g><g><use xlink:href="#bWxJd5YXk" opacity="1" fill="#40c971" fill-opacity="1"></use><g><use xlink:href="#bWxJd5YXk" opacity="1" fill-opacity="0" stroke="#000000" stroke-width="6" stroke-opacity="1"></use></g></g></g></svg>